<?xml version="1.0" encoding="UTF-8" standalone="no"?>
<!DOCTYPE svg PUBLIC "-//W3C//DTD SVG 1.1//EN"
 "http://www.w3.org/Graphics/SVG/1.1/DTD/svg11.dtd">
<!-- Generated by graphviz version 2.40.1 (20161225.0304)
 -->
<!-- Title: dependencies Pages: 1 -->
<svg width="504pt" height="211pt"
 viewBox="0.00 0.00 504.00 211.00" xmlns="http://www.w3.org/2000/svg" xmlns:xlink="http://www.w3.org/1999/xlink">
<g id="graph0" class="graph" transform="scale(1 1) rotate(0) translate(4 207)">
<title>dependencies</title>
<polygon fill="#ffffff" stroke="transparent" points="-4,4 -4,-207 500,-207 500,4 -4,4"/>
<text text-anchor="start" x="227.0091" y="-42.4" font-family="sans-serif" font-weight="bold" font-size="14.00" fill="#000000">Legend</text>
<polygon fill="#ffffb3" stroke="transparent" points="14,-10 14,-30 34,-30 34,-10 14,-10"/>
<text text-anchor="start" x="37.629" y="-15.4" font-family="sans-serif" font-size="14.00" fill="#000000"> &#160;Declarations</text>
<polygon fill="#8dd3c7" stroke="transparent" points="127,-10 127,-30 147,-30 147,-10 127,-10"/>
<text text-anchor="start" x="150.7251" y="-15.4" font-family="sans-serif" font-size="14.00" fill="#000000"> &#160;Module</text>
<polygon fill="#80b1d3" stroke="transparent" points="213,-10 213,-30 233,-30 233,-10 213,-10"/>
<text text-anchor="start" x="236.7812" y="-15.4" font-family="sans-serif" font-size="14.00" fill="#000000"> &#160;Bootstrap</text>
<polygon fill="#fdb462" stroke="transparent" points="310,-10 310,-30 330,-30 330,-10 310,-10"/>
<text text-anchor="start" x="333.6732" y="-15.4" font-family="sans-serif" font-size="14.00" fill="#000000"> &#160;Providers</text>
<polygon fill="#fb8072" stroke="transparent" points="406,-10 406,-30 426,-30 426,-10 406,-10"/>
<text text-anchor="start" x="429.7258" y="-15.4" font-family="sans-serif" font-size="14.00" fill="#000000"> &#160;Exports</text>
<g id="clust1" class="cluster">
<title>cluster_AppModule</title>
<polygon fill="none" stroke="#000000" stroke-dasharray="1,5" points="48.5,-70 48.5,-195 447.5,-195 447.5,-70 48.5,-70"/>
</g>
<g id="clust3" class="cluster">
<title>cluster_AppModule_imports</title>
<polygon fill="none" stroke="#000000" points="194.5,-78 194.5,-130 439.5,-130 439.5,-78 194.5,-78"/>
</g>
<g id="clust6" class="cluster">
<title>cluster_AppModule_providers</title>
<polygon fill="none" stroke="#000000" points="56.5,-78 56.5,-130 186.5,-130 186.5,-78 56.5,-78"/>
</g>
<!-- CommonModule -->
<g id="node1" class="node">
<title>CommonModule</title>
<polygon fill="#8dd3c7" stroke="#000000" points="431.1681,-122 428.1681,-126 407.1681,-126 404.1681,-122 319.8319,-122 319.8319,-86 431.1681,-86 431.1681,-122"/>
<text text-anchor="middle" x="375.5" y="-99.8" font-family="Times,serif" font-size="14.00" fill="#000000">CommonModule</text>
</g>
<!-- AppModule -->
<g id="node3" class="node">
<title>AppModule</title>
<polygon fill="#8dd3c7" stroke="#000000" points="294.1571,-187 291.1571,-191 270.1571,-191 267.1571,-187 210.8429,-187 210.8429,-151 294.1571,-151 294.1571,-187"/>
<text text-anchor="middle" x="252.5" y="-164.8" font-family="Times,serif" font-size="14.00" fill="#000000">AppModule</text>
</g>
<!-- CommonModule&#45;&gt;AppModule -->
<g id="edge1" class="edge">
<title>CommonModule&#45;&gt;AppModule</title>
<path fill="none" stroke="#000000" d="M375.5,-122.1061C375.5,-141.3391 375.5,-169 375.5,-169 375.5,-169 304.4856,-169 304.4856,-169"/>
<polygon fill="#000000" stroke="#000000" points="304.4856,-165.5001 294.4856,-169 304.4856,-172.5001 304.4856,-165.5001"/>
</g>
<!-- GenresModule -->
<g id="node2" class="node">
<title>GenresModule</title>
<polygon fill="#8dd3c7" stroke="#000000" points="302.191,-122 299.191,-126 278.191,-126 275.191,-122 202.809,-122 202.809,-86 302.191,-86 302.191,-122"/>
<text text-anchor="middle" x="252.5" y="-99.8" font-family="Times,serif" font-size="14.00" fill="#000000">GenresModule</text>
</g>
<!-- GenresModule&#45;&gt;AppModule -->
<g id="edge2" class="edge">
<title>GenresModule&#45;&gt;AppModule</title>
<path fill="none" stroke="#000000" d="M252.5,-122.1061C252.5,-122.1061 252.5,-140.991 252.5,-140.991"/>
<polygon fill="#000000" stroke="#000000" points="249.0001,-140.9909 252.5,-150.991 256.0001,-140.991 249.0001,-140.9909"/>
</g>
<!-- AppService -->
<g id="node4" class="node">
<title>AppService</title>
<ellipse fill="#fdb462" stroke="#000000" cx="121.5" cy="-104" rx="56.7406" ry="18"/>
<text text-anchor="middle" x="121.5" y="-99.8" font-family="Times,serif" font-size="14.00" fill="#000000">AppService</text>
</g>
<!-- AppService&#45;&gt;AppModule -->
<g id="edge3" class="edge">
<title>AppService&#45;&gt;AppModule</title>
<path fill="none" stroke="#000000" d="M121.5,-122.1061C121.5,-141.3391 121.5,-169 121.5,-169 121.5,-169 200.6906,-169 200.6906,-169"/>
<polygon fill="#000000" stroke="#000000" points="200.6906,-172.5001 210.6906,-169 200.6906,-165.5001 200.6906,-172.5001"/>
</g>
</g>
</svg>
